<mxfile host="app.diagrams.net" modified="2021-11-06T02:23:47.533Z" agent="5.0 (Windows NT 10.0; Win64; x64) AppleWebKit/537.36 (KHTML, like Gecko) Chrome/95.0.4638.69 Safari/537.36" etag="I8R9sdE0ttVo2Bh0ilVq" version="15.7.0" type="github">
  <diagram id="9dc-BoBM4Go2QmwlaHs8" name="Page-1">
    <mxGraphModel dx="1038" dy="539" grid="1" gridSize="10" guides="1" tooltips="1" connect="1" arrows="1" fold="1" page="1" pageScale="1" pageWidth="827" pageHeight="1169" background="#FFFFFF" math="0" shadow="0">
      <root>
        <mxCell id="0" />
        <mxCell id="1" parent="0" />
        <mxCell id="jUpOuZSEmDqFfqzpgxXJ-4" value="" style="edgeStyle=orthogonalEdgeStyle;rounded=0;orthogonalLoop=1;jettySize=auto;html=1;" edge="1" parent="1" source="jUpOuZSEmDqFfqzpgxXJ-1" target="jUpOuZSEmDqFfqzpgxXJ-3">
          <mxGeometry relative="1" as="geometry" />
        </mxCell>
        <mxCell id="jUpOuZSEmDqFfqzpgxXJ-1" value="WarpBilinearQuad" style="rounded=1;whiteSpace=wrap;html=1;" vertex="1" parent="1">
          <mxGeometry x="185" y="20" width="120" height="50" as="geometry" />
        </mxCell>
        <mxCell id="jUpOuZSEmDqFfqzpgxXJ-7" value="" style="edgeStyle=orthogonalEdgeStyle;rounded=0;orthogonalLoop=1;jettySize=auto;html=1;" edge="1" parent="1" source="jUpOuZSEmDqFfqzpgxXJ-3" target="jUpOuZSEmDqFfqzpgxXJ-6">
          <mxGeometry relative="1" as="geometry" />
        </mxCell>
        <mxCell id="jUpOuZSEmDqFfqzpgxXJ-3" value="pSrc,pDst,srcSize,dstSize,&lt;br&gt;srcRoi,dstRoi等" style="shape=parallelogram;perimeter=parallelogramPerimeter;whiteSpace=wrap;html=1;fixedSize=1;rounded=1;" vertex="1" parent="1">
          <mxGeometry x="142.5" y="100" width="205" height="60" as="geometry" />
        </mxCell>
        <mxCell id="jUpOuZSEmDqFfqzpgxXJ-11" value="" style="edgeStyle=orthogonalEdgeStyle;rounded=0;orthogonalLoop=1;jettySize=auto;html=1;" edge="1" parent="1" source="jUpOuZSEmDqFfqzpgxXJ-6" target="jUpOuZSEmDqFfqzpgxXJ-10">
          <mxGeometry relative="1" as="geometry" />
        </mxCell>
        <mxCell id="jUpOuZSEmDqFfqzpgxXJ-6" value="计算正变换系数coeffs[8]" style="whiteSpace=wrap;html=1;rounded=1;" vertex="1" parent="1">
          <mxGeometry x="185" y="180" width="120" height="60" as="geometry" />
        </mxCell>
        <mxCell id="jUpOuZSEmDqFfqzpgxXJ-13" value="" style="edgeStyle=orthogonalEdgeStyle;rounded=0;orthogonalLoop=1;jettySize=auto;html=1;" edge="1" parent="1" source="jUpOuZSEmDqFfqzpgxXJ-10" target="jUpOuZSEmDqFfqzpgxXJ-12">
          <mxGeometry relative="1" as="geometry" />
        </mxCell>
        <mxCell id="jUpOuZSEmDqFfqzpgxXJ-10" value="计算逆变换系数c[11]" style="whiteSpace=wrap;html=1;rounded=1;" vertex="1" parent="1">
          <mxGeometry x="185" y="260" width="120" height="60" as="geometry" />
        </mxCell>
        <mxCell id="jUpOuZSEmDqFfqzpgxXJ-15" value="" style="edgeStyle=orthogonalEdgeStyle;rounded=0;orthogonalLoop=1;jettySize=auto;html=1;" edge="1" parent="1" source="jUpOuZSEmDqFfqzpgxXJ-12" target="jUpOuZSEmDqFfqzpgxXJ-14">
          <mxGeometry relative="1" as="geometry" />
        </mxCell>
        <mxCell id="jUpOuZSEmDqFfqzpgxXJ-12" value="计算quad和dstRoi的交集，interArea" style="whiteSpace=wrap;html=1;rounded=1;" vertex="1" parent="1">
          <mxGeometry x="140" y="340" width="210" height="60" as="geometry" />
        </mxCell>
        <mxCell id="jUpOuZSEmDqFfqzpgxXJ-17" value="" style="edgeStyle=orthogonalEdgeStyle;rounded=0;orthogonalLoop=1;jettySize=auto;html=1;" edge="1" parent="1" source="jUpOuZSEmDqFfqzpgxXJ-14" target="jUpOuZSEmDqFfqzpgxXJ-16">
          <mxGeometry relative="1" as="geometry" />
        </mxCell>
        <mxCell id="jUpOuZSEmDqFfqzpgxXJ-14" value="x=interArea.x0&lt;br&gt;y=interArea.y0" style="whiteSpace=wrap;html=1;rounded=1;" vertex="1" parent="1">
          <mxGeometry x="185" y="430" width="120" height="40" as="geometry" />
        </mxCell>
        <mxCell id="jUpOuZSEmDqFfqzpgxXJ-19" value="" style="edgeStyle=orthogonalEdgeStyle;rounded=0;orthogonalLoop=1;jettySize=auto;html=1;" edge="1" parent="1" source="jUpOuZSEmDqFfqzpgxXJ-16" target="jUpOuZSEmDqFfqzpgxXJ-18">
          <mxGeometry relative="1" as="geometry" />
        </mxCell>
        <mxCell id="jUpOuZSEmDqFfqzpgxXJ-16" value="将(x,y)代入变换方程，得(u&#39;,v&#39;)" style="whiteSpace=wrap;html=1;rounded=1;" vertex="1" parent="1">
          <mxGeometry x="155" y="500" width="180" height="60" as="geometry" />
        </mxCell>
        <mxCell id="jUpOuZSEmDqFfqzpgxXJ-21" value="" style="edgeStyle=orthogonalEdgeStyle;rounded=0;orthogonalLoop=1;jettySize=auto;html=1;" edge="1" parent="1" source="jUpOuZSEmDqFfqzpgxXJ-18" target="jUpOuZSEmDqFfqzpgxXJ-20">
          <mxGeometry relative="1" as="geometry" />
        </mxCell>
        <mxCell id="jUpOuZSEmDqFfqzpgxXJ-25" value="" style="edgeStyle=orthogonalEdgeStyle;rounded=0;orthogonalLoop=1;jettySize=auto;html=1;" edge="1" parent="1" source="jUpOuZSEmDqFfqzpgxXJ-18" target="jUpOuZSEmDqFfqzpgxXJ-24">
          <mxGeometry relative="1" as="geometry" />
        </mxCell>
        <mxCell id="jUpOuZSEmDqFfqzpgxXJ-18" value="最近邻插值" style="rhombus;whiteSpace=wrap;html=1;rounded=1;" vertex="1" parent="1">
          <mxGeometry x="175" y="585" width="140" height="50" as="geometry" />
        </mxCell>
        <mxCell id="jUpOuZSEmDqFfqzpgxXJ-23" value="" style="edgeStyle=orthogonalEdgeStyle;rounded=0;orthogonalLoop=1;jettySize=auto;html=1;" edge="1" parent="1" source="jUpOuZSEmDqFfqzpgxXJ-20" target="jUpOuZSEmDqFfqzpgxXJ-22">
          <mxGeometry relative="1" as="geometry" />
        </mxCell>
        <mxCell id="jUpOuZSEmDqFfqzpgxXJ-33" value="" style="edgeStyle=orthogonalEdgeStyle;rounded=0;orthogonalLoop=1;jettySize=auto;html=1;" edge="1" parent="1" source="jUpOuZSEmDqFfqzpgxXJ-20" target="jUpOuZSEmDqFfqzpgxXJ-32">
          <mxGeometry relative="1" as="geometry" />
        </mxCell>
        <mxCell id="jUpOuZSEmDqFfqzpgxXJ-20" value="双线性插值" style="rhombus;whiteSpace=wrap;html=1;rounded=1;" vertex="1" parent="1">
          <mxGeometry x="414" y="585" width="140" height="50" as="geometry" />
        </mxCell>
        <mxCell id="jUpOuZSEmDqFfqzpgxXJ-39" value="" style="edgeStyle=orthogonalEdgeStyle;rounded=0;orthogonalLoop=1;jettySize=auto;html=1;" edge="1" parent="1" source="jUpOuZSEmDqFfqzpgxXJ-22" target="jUpOuZSEmDqFfqzpgxXJ-38">
          <mxGeometry relative="1" as="geometry" />
        </mxCell>
        <mxCell id="jUpOuZSEmDqFfqzpgxXJ-22" value="三次插值" style="rhombus;whiteSpace=wrap;html=1;rounded=1;" vertex="1" parent="1">
          <mxGeometry x="650" y="585" width="140" height="50" as="geometry" />
        </mxCell>
        <mxCell id="jUpOuZSEmDqFfqzpgxXJ-27" value="" style="edgeStyle=orthogonalEdgeStyle;rounded=0;orthogonalLoop=1;jettySize=auto;html=1;" edge="1" parent="1" source="jUpOuZSEmDqFfqzpgxXJ-24" target="jUpOuZSEmDqFfqzpgxXJ-26">
          <mxGeometry relative="1" as="geometry" />
        </mxCell>
        <mxCell id="jUpOuZSEmDqFfqzpgxXJ-24" value="找到(u&#39;,v&#39;)的最近点(u,v)" style="whiteSpace=wrap;html=1;rounded=1;" vertex="1" parent="1">
          <mxGeometry x="152.5" y="660" width="185" height="40" as="geometry" />
        </mxCell>
        <mxCell id="jUpOuZSEmDqFfqzpgxXJ-29" value="" style="edgeStyle=orthogonalEdgeStyle;rounded=0;orthogonalLoop=1;jettySize=auto;html=1;" edge="1" parent="1" source="jUpOuZSEmDqFfqzpgxXJ-26" target="jUpOuZSEmDqFfqzpgxXJ-28">
          <mxGeometry relative="1" as="geometry" />
        </mxCell>
        <mxCell id="jUpOuZSEmDqFfqzpgxXJ-26" value="pDst(x,y)=pSrc(u&#39;,v&#39;)=pSrc(u,v)" style="whiteSpace=wrap;html=1;rounded=1;" vertex="1" parent="1">
          <mxGeometry x="137.5" y="730" width="215" height="40" as="geometry" />
        </mxCell>
        <mxCell id="jUpOuZSEmDqFfqzpgxXJ-31" value="" style="edgeStyle=orthogonalEdgeStyle;rounded=0;orthogonalLoop=1;jettySize=auto;html=1;" edge="1" parent="1" source="jUpOuZSEmDqFfqzpgxXJ-28">
          <mxGeometry relative="1" as="geometry">
            <mxPoint x="245" y="930" as="targetPoint" />
          </mxGeometry>
        </mxCell>
        <mxCell id="jUpOuZSEmDqFfqzpgxXJ-49" value="" style="edgeStyle=orthogonalEdgeStyle;rounded=0;orthogonalLoop=1;jettySize=auto;html=1;" edge="1" parent="1" source="jUpOuZSEmDqFfqzpgxXJ-28" target="jUpOuZSEmDqFfqzpgxXJ-48">
          <mxGeometry relative="1" as="geometry" />
        </mxCell>
        <mxCell id="jUpOuZSEmDqFfqzpgxXJ-51" value="" style="edgeStyle=orthogonalEdgeStyle;rounded=0;orthogonalLoop=1;jettySize=auto;html=1;" edge="1" parent="1" source="jUpOuZSEmDqFfqzpgxXJ-28" target="jUpOuZSEmDqFfqzpgxXJ-50">
          <mxGeometry relative="1" as="geometry" />
        </mxCell>
        <mxCell id="jUpOuZSEmDqFfqzpgxXJ-28" value="遍历interArea结束" style="rhombus;whiteSpace=wrap;html=1;rounded=1;" vertex="1" parent="1">
          <mxGeometry x="177.5" y="910" width="135" height="70" as="geometry" />
        </mxCell>
        <mxCell id="jUpOuZSEmDqFfqzpgxXJ-35" value="" style="edgeStyle=orthogonalEdgeStyle;rounded=0;orthogonalLoop=1;jettySize=auto;html=1;" edge="1" parent="1" source="jUpOuZSEmDqFfqzpgxXJ-32" target="jUpOuZSEmDqFfqzpgxXJ-34">
          <mxGeometry relative="1" as="geometry" />
        </mxCell>
        <mxCell id="jUpOuZSEmDqFfqzpgxXJ-32" value="找到(u&#39;,v&#39;)的最近点四个点A,B,C,D" style="whiteSpace=wrap;html=1;rounded=1;" vertex="1" parent="1">
          <mxGeometry x="402" y="660" width="164" height="40" as="geometry" />
        </mxCell>
        <mxCell id="jUpOuZSEmDqFfqzpgxXJ-37" value="" style="edgeStyle=orthogonalEdgeStyle;rounded=0;orthogonalLoop=1;jettySize=auto;html=1;" edge="1" parent="1" source="jUpOuZSEmDqFfqzpgxXJ-34" target="jUpOuZSEmDqFfqzpgxXJ-36">
          <mxGeometry relative="1" as="geometry" />
        </mxCell>
        <mxCell id="jUpOuZSEmDqFfqzpgxXJ-34" value="代入双线性插值公式，计算结果为res" style="whiteSpace=wrap;html=1;rounded=1;" vertex="1" parent="1">
          <mxGeometry x="371" y="730" width="226" height="40" as="geometry" />
        </mxCell>
        <mxCell id="jUpOuZSEmDqFfqzpgxXJ-46" style="edgeStyle=orthogonalEdgeStyle;rounded=0;orthogonalLoop=1;jettySize=auto;html=1;entryX=1;entryY=0.5;entryDx=0;entryDy=0;" edge="1" parent="1" source="jUpOuZSEmDqFfqzpgxXJ-36" target="jUpOuZSEmDqFfqzpgxXJ-28">
          <mxGeometry relative="1" as="geometry">
            <Array as="points">
              <mxPoint x="484" y="945" />
            </Array>
          </mxGeometry>
        </mxCell>
        <mxCell id="jUpOuZSEmDqFfqzpgxXJ-36" value="&lt;span&gt;pDst(x,y)=pSrc(u&#39;,v&#39;)=res&lt;/span&gt;" style="whiteSpace=wrap;html=1;rounded=1;" vertex="1" parent="1">
          <mxGeometry x="396" y="820" width="176" height="50" as="geometry" />
        </mxCell>
        <mxCell id="jUpOuZSEmDqFfqzpgxXJ-41" value="" style="edgeStyle=orthogonalEdgeStyle;rounded=0;orthogonalLoop=1;jettySize=auto;html=1;" edge="1" parent="1" source="jUpOuZSEmDqFfqzpgxXJ-38" target="jUpOuZSEmDqFfqzpgxXJ-40">
          <mxGeometry relative="1" as="geometry" />
        </mxCell>
        <mxCell id="jUpOuZSEmDqFfqzpgxXJ-38" value="找到(u&#39;,v&#39;)的最近邻16个点" style="whiteSpace=wrap;html=1;rounded=1;" vertex="1" parent="1">
          <mxGeometry x="660" y="660" width="120" height="60" as="geometry" />
        </mxCell>
        <mxCell id="jUpOuZSEmDqFfqzpgxXJ-43" style="edgeStyle=orthogonalEdgeStyle;rounded=0;orthogonalLoop=1;jettySize=auto;html=1;exitX=0.5;exitY=1;exitDx=0;exitDy=0;" edge="1" parent="1" source="jUpOuZSEmDqFfqzpgxXJ-40" target="jUpOuZSEmDqFfqzpgxXJ-42">
          <mxGeometry relative="1" as="geometry" />
        </mxCell>
        <mxCell id="jUpOuZSEmDqFfqzpgxXJ-40" value="代入三次插值公式，计算结果为res" style="whiteSpace=wrap;html=1;rounded=1;" vertex="1" parent="1">
          <mxGeometry x="660" y="740" width="120" height="30" as="geometry" />
        </mxCell>
        <mxCell id="jUpOuZSEmDqFfqzpgxXJ-47" style="edgeStyle=orthogonalEdgeStyle;rounded=0;orthogonalLoop=1;jettySize=auto;html=1;" edge="1" parent="1" source="jUpOuZSEmDqFfqzpgxXJ-42" target="jUpOuZSEmDqFfqzpgxXJ-28">
          <mxGeometry relative="1" as="geometry">
            <mxPoint x="320" y="940" as="targetPoint" />
            <Array as="points">
              <mxPoint x="720" y="945" />
            </Array>
          </mxGeometry>
        </mxCell>
        <mxCell id="jUpOuZSEmDqFfqzpgxXJ-42" value="&lt;span&gt;pDst(x,y)=pSrc(u&#39;,v&#39;)=res&lt;/span&gt;" style="whiteSpace=wrap;html=1;rounded=1;" vertex="1" parent="1">
          <mxGeometry x="632" y="820" width="176" height="45" as="geometry" />
        </mxCell>
        <mxCell id="jUpOuZSEmDqFfqzpgxXJ-52" style="edgeStyle=orthogonalEdgeStyle;rounded=0;orthogonalLoop=1;jettySize=auto;html=1;entryX=0;entryY=0.5;entryDx=0;entryDy=0;" edge="1" parent="1" source="jUpOuZSEmDqFfqzpgxXJ-48" target="jUpOuZSEmDqFfqzpgxXJ-16">
          <mxGeometry relative="1" as="geometry">
            <Array as="points">
              <mxPoint x="80" y="530" />
            </Array>
          </mxGeometry>
        </mxCell>
        <mxCell id="jUpOuZSEmDqFfqzpgxXJ-48" value="(x,y)=interArea中的下一个点" style="whiteSpace=wrap;html=1;rounded=1;" vertex="1" parent="1">
          <mxGeometry x="10" y="915" width="120" height="60" as="geometry" />
        </mxCell>
        <mxCell id="jUpOuZSEmDqFfqzpgxXJ-50" value="结束" style="whiteSpace=wrap;html=1;rounded=1;" vertex="1" parent="1">
          <mxGeometry x="185" y="1000" width="120" height="60" as="geometry" />
        </mxCell>
        <mxCell id="jUpOuZSEmDqFfqzpgxXJ-54" value="是" style="text;html=1;resizable=0;autosize=1;align=center;verticalAlign=middle;points=[];fillColor=none;strokeColor=none;rounded=0;" vertex="1" parent="1">
          <mxGeometry x="275" y="635" width="30" height="20" as="geometry" />
        </mxCell>
        <mxCell id="jUpOuZSEmDqFfqzpgxXJ-55" value="是" style="text;html=1;resizable=0;autosize=1;align=center;verticalAlign=middle;points=[];fillColor=none;strokeColor=none;rounded=0;" vertex="1" parent="1">
          <mxGeometry x="750" y="630" width="30" height="20" as="geometry" />
        </mxCell>
        <mxCell id="jUpOuZSEmDqFfqzpgxXJ-56" value="是" style="text;html=1;resizable=0;autosize=1;align=center;verticalAlign=middle;points=[];fillColor=none;strokeColor=none;rounded=0;" vertex="1" parent="1">
          <mxGeometry x="524" y="635" width="30" height="20" as="geometry" />
        </mxCell>
        <mxCell id="jUpOuZSEmDqFfqzpgxXJ-57" value="是" style="text;html=1;resizable=0;autosize=1;align=center;verticalAlign=middle;points=[];fillColor=none;strokeColor=none;rounded=0;" vertex="1" parent="1">
          <mxGeometry x="275" y="975" width="30" height="20" as="geometry" />
        </mxCell>
        <mxCell id="jUpOuZSEmDqFfqzpgxXJ-58" value="否" style="text;html=1;resizable=0;autosize=1;align=center;verticalAlign=middle;points=[];fillColor=none;strokeColor=none;rounded=0;" vertex="1" parent="1">
          <mxGeometry x="147.5" y="910" width="30" height="20" as="geometry" />
        </mxCell>
      </root>
    </mxGraphModel>
  </diagram>
</mxfile>
